sample_movement
version=1
nRows=5
nColumns=115
inDegrees=yes
endheader
time HIPS_TX HIPS_TY HIPS_TZ HIPS_RX HIPS_RY HIPS_RZ SPINE_TX SPINE_TY SPINE_TZ SPINE_RX SPINE_RY SPINE_RZ CHEST_TX CHEST_TY CHEST_TZ CHEST_RX CHEST_RY CHEST_RZ NECK_TX NECK_TY NECK_TZ NECK_RX NECK_RY NECK_RZ SHOULDER_L_TX SHOULDER_L_TY SHOULDER_L_TZ SHOULDER_L_RX SHOULDER_L_RY SHOULDER_L_RZ ARM_L_TX ARM_L_TY ARM_L_TZ ARM_L_RX ARM_L_RY ARM_L_RZ FOREARM_L_TX FOREARM_L_TY FOREARM_L_TZ FOREARM_L_RX FOREARM_L_RY FOREARM_L_RZ HAND_L_TX HAND_L_TY HAND_L_TZ HAND_L_RX HAND_L_RY HAND_L_RZ SHOULDER_R_TX SHOULDER_R_TY SHOULDER_R_TZ SHOULDER_R_RX SHOULDER_R_RY SHOULDER_R_RZ ARM_R_TX ARM_R_TY ARM_R_TZ ARM_R_RX ARM_R_RY ARM_R_RZ FOREARM_R_TX FOREARM_R_TY FOREARM_R_TZ FOREARM_R_RX FOREARM_R_RY FOREARM_R_RZ HAND_R_TX HAND_R_TY HAND_R_TZ HAND_R_RX HAND_R_RY HAND_R_RZ UPLEG_L_TX UPLEG_L_TY UPLEG_L_TZ UPLEG_L_RX UPLEG_L_RY UPLEG_L_RZ LEG_L_TX LEG_L_TY LEG_L_TZ LEG_L_RX LEG_L_RY LEG_L_RZ FOOT_L_TX FOOT_L_TY FOOT_L_TZ FOOT_L_RX FOOT_L_RY FOOT_L_RZ UPLEG_R_TX UPLEG_R_TY UPLEG_R_TZ UPLEG_R_RX UPLEG_R_RY UPLEG_R_RZ LEG_R_TX LEG_R_TY LEG_R_TZ LEG_R_RX LEG_R_RY LEG_R_RZ FOOT_R_TX FOOT_R_TY FOOT_R_TZ FOOT_R_RX FOOT_R_RY FOOT_R_RZ HEAD_TX HEAD_TY HEAD_TZ HEAD_RX HEAD_RY HEAD_RZ
10.05795860 0.45339000 0.80644202 1.17141902 166.46811677 37.40892864 -178.25704646 0.00000000 0.00000000 0.00000000 -6.61529493 0.00002759 -0.00005304 0.00000000 0.00000000 0.00000000 1.91977854 -3.48256068 0.56833988 0.00000000 0.00000000 0.00000000 9.19935756 0.00001721 -0.00001741 0.00000000 0.00000000 0.00000000 -3.33463585 -2.64940060 -13.75183318 0.00000000 0.00000000 0.00000000 20.37360174 -4.49031607 -62.88060159 0.00000000 0.00000000 0.00000000 0.00007082 -63.37903982 0.00011140 0.00000000 0.00000000 0.00000000 45.01866200 -8.04447631 -19.43920642 0.00000000 0.00000000 0.00000000 -2.71705528 0.13337167 12.89390313 0.00000000 0.00000000 0.00000000 32.89456213 8.90597836 53.99230598 0.00000000 0.00000000 0.00000000 -0.00001176 64.17440482 0.00001386 0.00000000 0.00000000 0.00000000 3.14330988 2.93802355 18.38775789 0.00000000 0.00000000 0.00000000 -8.62389909 7.55089900 1.68506719 0.00000000 0.00000000 0.00000000 23.63902156 -0.00280802 -0.00693642 0.00000000 0.00000000 0.00000000 1.22432564 -6.30327613 0.84670788 0.00000000 0.00000000 0.00000000 -12.98792746 -14.57972397 -8.28845324 0.00000000 0.00000000 0.00000000 28.77438693 0.00677561 0.01160986 0.00000000 0.00000000 0.00000000 0.50154846 7.11354089 -0.87245099 0.00000000 0.00000000 0.00000000 -4.62148234 12.81613837 -1.60219757
10.06892967 0.45339000 0.80644202 1.17141902 166.46811677 37.40892864 -178.25704646 0.00000000 0.00000000 0.00000000 -6.61529493 0.00002759 -0.00005304 0.00000000 0.00000000 0.00000000 1.91977854 -3.48256068 0.56833988 0.00000000 0.00000000 0.00000000 9.19935756 0.00001721 -0.00001741 0.00000000 0.00000000 0.00000000 -3.33463585 -2.64940060 -13.75183318 0.00000000 0.00000000 0.00000000 20.37360174 -4.49031607 -62.88060159 0.00000000 0.00000000 0.00000000 0.00007082 -63.37903982 0.00011140 0.00000000 0.00000000 0.00000000 45.01866200 -8.04447631 -19.43920642 0.00000000 0.00000000 0.00000000 -2.71705528 0.13337167 12.89390313 0.00000000 0.00000000 0.00000000 32.89456213 8.90597836 53.99230598 0.00000000 0.00000000 0.00000000 -0.00001176 64.17440482 0.00001386 0.00000000 0.00000000 0.00000000 3.14330988 2.93802355 18.38775789 0.00000000 0.00000000 0.00000000 -8.62389909 7.55089900 1.68506719 0.00000000 0.00000000 0.00000000 23.63902156 -0.00280802 -0.00693642 0.00000000 0.00000000 0.00000000 1.22432564 -6.30327613 0.84670788 0.00000000 0.00000000 0.00000000 -12.98792746 -14.57972397 -8.28845324 0.00000000 0.00000000 0.00000000 28.77438693 0.00677561 0.01160986 0.00000000 0.00000000 0.00000000 0.50154846 7.11354089 -0.87245099 0.00000000 0.00000000 0.00000000 -4.62148234 12.81613837 -1.60219757
10.07989883 0.45339000 0.80644202 1.17141902 166.46811677 37.40892864 -178.25704646 0.00000000 0.00000000 0.00000000 -6.61529493 0.00002759 -0.00005304 0.00000000 0.00000000 0.00000000 1.91977854 -3.48256068 0.56833988 0.00000000 0.00000000 0.00000000 9.19935756 0.00001721 -0.00001741 0.00000000 0.00000000 0.00000000 -3.33463585 -2.64940060 -13.75183318 0.00000000 0.00000000 0.00000000 20.37360174 -4.49031607 -62.88060159 0.00000000 0.00000000 0.00000000 0.00007082 -63.37903982 0.00011140 0.00000000 0.00000000 0.00000000 45.01866200 -8.04447631 -19.43920642 0.00000000 0.00000000 0.00000000 -2.71705528 0.13337167 12.89390313 0.00000000 0.00000000 0.00000000 32.89456213 8.90597836 53.99230598 0.00000000 0.00000000 0.00000000 -0.00001176 64.17440482 0.00001386 0.00000000 0.00000000 0.00000000 3.14330988 2.93802355 18.38775789 0.00000000 0.00000000 0.00000000 -8.62389909 7.55089900 1.68506719 0.00000000 0.00000000 0.00000000 23.63902156 -0.00280802 -0.00693642 0.00000000 0.00000000 0.00000000 1.22432564 -6.30327613 0.84670788 0.00000000 0.00000000 0.00000000 -12.98792746 -14.57972397 -8.28845324 0.00000000 0.00000000 0.00000000 28.77438693 0.00677561 0.01160986 0.00000000 0.00000000 0.00000000 0.50154846 7.11354089 -0.87245099 0.00000000 0.00000000 0.00000000 -4.62148234 12.81613837 -1.60219757
10.09087181 0.45556301 0.80692798 1.17247701 166.29822836 38.78201057 -178.83424432 0.00000000 0.00000000 0.00000000 -6.82762741 -0.00007910 0.00000903 0.00000000 0.00000000 0.00000000 2.39049519 -4.25152265 0.51341919 0.00000000 0.00000000 0.00000000 9.19931968 0.00005584 -0.00000347 0.00000000 0.00000000 0.00000000 -3.38247950 -2.82136086 -13.86380628 0.00000000 0.00000000 0.00000000 21.97453263 -3.59042717 -64.13011911 0.00000000 0.00000000 0.00000000 -0.00008062 -58.27443610 -0.00006167 0.00000000 0.00000000 0.00000000 73.91552003 -24.87925486 -10.94668741 0.00000000 0.00000000 0.00000000 -2.73750877 0.21206954 13.52409217 0.00000000 0.00000000 0.00000000 33.29456780 9.98992998 52.07731399 0.00000000 0.00000000 0.00000000 -0.00007794 62.29459270 -0.00002402 0.00000000 0.00000000 0.00000000 17.60405492 13.07603412 18.22138070 0.00000000 0.00000000 0.00000000 -7.29981363 7.46896867 1.81333139 0.00000000 0.00000000 0.00000000 22.66964214 -0.00255374 -0.00700061 0.00000000 0.00000000 0.00000000 1.44933290 -6.23156069 0.86208789 0.00000000 0.00000000 0.00000000 -12.83081030 -14.42400919 -8.18266884 0.00000000 0.00000000 0.00000000 28.94388448 0.00673085 0.01155578 0.00000000 0.00000000 0.00000000 0.60935508 6.83124002 -0.85163110 0.00000000 0.00000000 0.00000000 -4.59288540 14.65247396 0.91929709
10.10184860 0.45556301 0.80692798 1.17247701 166.29822836 38.78201057 -178.83424432 0.00000000 0.00000000 0.00000000 -6.82762741 -0.00007910 0.00000903 0.00000000 0.00000000 0.00000000 2.39049519 -4.25152265 0.51341919 0.00000000 0.00000000 0.00000000 9.19931968 0.00005584 -0.00000347 0.00000000 0.00000000 0.00000000 -3.38247950 -2.82136086 -13.86380628 0.00000000 0.00000000 0.00000000 21.97453263 -3.59042717 -64.13011911 0.00000000 0.00000000 0.00000000 -0.00008062 -58.27443610 -0.00006167 0.00000000 0.00000000 0.00000000 73.91552003 -24.87925486 -10.94668741 0.00000000 0.00000000 0.00000000 -2.73750877 0.21206954 13.52409217 0.00000000 0.00000000 0.00000000 33.29456780 9.98992998 52.07731399 0.00000000 0.00000000 0.00000000 -0.00007794 62.29459270 -0.00002402 0.00000000 0.00000000 0.00000000 17.60405492 13.07603412 18.22138070 0.00000000 0.00000000 0.00000000 -7.29981363 7.46896867 1.81333139 0.00000000 0.00000000 0.00000000 22.66964214 -0.00255374 -0.00700061 0.00000000 0.00000000 0.00000000 1.44933290 -6.23156069 0.86208789 0.00000000 0.00000000 0.00000000 -12.83081030 -14.42400919 -8.18266884 0.00000000 0.00000000 0.00000000 28.94388448 0.00673085 0.01155578 0.00000000 0.00000000 0.00000000 0.60935508 6.83124002 -0.85163110 0.00000000 0.00000000 0.00000000 -4.59288540 14.65247396 0.91929709
